<?xml version="1.0" encoding="utf-8"?>
<!-- Generator: Adobe Illustrator 23.0.0, SVG Export Plug-In . SVG Version: 6.00 Build 0)  -->
<svg version="1.1" id="Livello_1" xmlns="http://www.w3.org/2000/svg" xmlns:xlink="http://www.w3.org/1999/xlink" x="0px" y="0px"
	 viewBox="0 0 65 65" style="enable-background:new 0 0 65 65;" xml:space="preserve">
<style type="text/css">
	.st0{display:none;}
	.st1{display:inline;}
	.st2{fill-rule:evenodd;clip-rule:evenodd;fill:#1C3C59;}
	.st3{fill-rule:evenodd;clip-rule:evenodd;fill:#7BBD66;}
	.st4{filter:url(#Adobe_OpacityMaskFilter);}
	.st5{fill-rule:evenodd;clip-rule:evenodd;fill:#FFFFFF;}
	.st6{mask:url(#mask-2_2_);fill-rule:evenodd;clip-rule:evenodd;fill:#1B3C59;}
	.st7{fill-rule:evenodd;clip-rule:evenodd;fill:#74CE65;}
</style>
<g id="Page-1" class="st0">
	<g id="Corso" transform="translate(-151.000000, -617.000000)" class="st1">
		<g id="lunch" transform="translate(151.000000, 617.000000)">
			<g id="Group-11">
				<path id="Fill-1" class="st2" d="M20.5,56.7H8.7c-1.5,0-2.7-1-2.9-2.4l-5.9-36.1C-0.2,17.4,0,16.6,0.6,16c0.6-0.6,1.4-1,2.2-1
					h8.9c1.6,0,2.9,1.2,2.9,2.8s-1.3,2.8-2.9,2.8H6.3l5,30.6h6.8l5.5-28.3c0.3-1.5,1.8-2.5,3.4-2.2c1.6,0.3,2.7,1.7,2.4,3.2
					l-5.9,30.6C23.2,55.8,22,56.7,20.5,56.7"/>
				<path id="Fill-3" class="st3" d="M14.6,37.3c-0.3,0-0.6,0-0.9-0.1c-1.6-0.5-2.4-2.1-1.9-3.5l8.9-25c0.5-1.4,2.2-2.3,3.7-1.8
					s2.4,2.1,1.9,3.5l-8.9,25C17,36.5,15.9,37.3,14.6,37.3"/>
				<path id="Fill-5" class="st2" d="M61.9,42.8H44.2c-1.6,0-3-1.3-3-2.8s1.3-2.8,3-2.8H59v-1.4c-12-8.1-21.2,0.2-21.5,0.6
					c-1.2,1.1-3,1.1-4.2,0s-1.2-2.8,0-3.9c4.7-4.5,17.2-10.2,30.5-0.2c0.7,0.5,1.1,1.3,1.1,2.2V40C64.9,41.6,63.5,42.8,61.9,42.8"/>
				<path id="Fill-7" class="st3" d="M53,51.2H32.4c-1.6,0-3-1.3-3-2.8s1.3-2.8,3-2.8H53c1.6,0,3,1.3,3,2.8S54.7,51.2,53,51.2"/>
				<path id="Fill-9" class="st2" d="M61.9,59.5H35.3c-1.6,0-3-1.3-3-2.8s1.3-2.8,3-2.8h26.6c1.6,0,3,1.3,3,2.8
					C64.9,58.2,63.5,59.5,61.9,59.5"/>
			</g>
		</g>
	</g>
</g>
<g id="Page-1_2_" class="st0">
	<g id="Home_1_" transform="translate(-934.000000, -1452.000000)" class="st1">
		<g id="lamp" transform="translate(934.000000, 1452.000000)">
			<g id="Group-13">
				<path id="Fill-1_2_" class="st2" d="M45.8,22.2c-3.6-3.4-8.3-5.2-13.3-5c-9.3,0.5-16.8,8.1-17.1,17.4
					c-0.3,7.2,3.8,13.8,10.2,16.9c0.3,0.1,0.4,0.4,0.4,0.7v3.1c0,0.2,0,0.4,0,0.6l0,0.2c0,0.2,0.2,0.4,0.4,0.4h2.1
					c0.1,0,0.3,0,0.3-0.2s0.1-0.2,0.1-0.3c0-0.2,0-0.3,0-0.5v-4.7c0-0.7-0.4-1.3-1-1.6c-0.5-0.2-0.9-0.4-1.3-0.6
					c-5.2-2.6-8.5-8.1-8.3-13.9c0.3-7.8,6.5-14.1,14.3-14.5c4.2-0.2,8.1,1.3,11.1,4.1c3,2.9,4.7,6.7,4.7,10.9
					c0,5.7-3.2,10.8-8.3,13.4c-0.4,0.2-0.9,0.4-1.3,0.6c-0.6,0.2-1,0.9-1,1.6v2.7c0,0.5,0.4,0.9,0.9,0.9h1.3c0.5,0,0.9-0.4,0.9-0.9
					v-1.4c0-0.2,0.1-0.4,0.3-0.5c6.3-3,10.3-9.4,10.3-16.3C51.4,30.3,49.4,25.6,45.8,22.2"/>
				<path id="Fill-3_1_" class="st3" d="M19.4,19.4c-0.4,0-0.8-0.1-1.1-0.4l-6-4.8c-0.8-0.6-0.9-1.7-0.3-2.5
					c0.6-0.8,1.7-0.9,2.5-0.3l6,4.8c0.8,0.6,0.9,1.7,0.3,2.5C20.4,19.2,19.9,19.4,19.4,19.4"/>
				<path id="Fill-5_1_" class="st2" d="M24.9,15.5c-0.7,0-1.3-0.4-1.6-1l-5-10.4c-0.4-0.9,0-1.9,0.8-2.3s1.9,0,2.4,0.8l5,10.4
					c0.4,0.9,0,1.9-0.8,2.4C25.4,15.5,25.1,15.5,24.9,15.5"/>
				<path id="Fill-7_1_" class="st3" d="M31.5,14.6c-1,0-1.8-0.8-1.8-1.8V1.9c0-1,0.8-1.8,1.8-1.8s1.8,0.8,1.8,1.8v10.9
					C33.2,13.8,32.4,14.6,31.5,14.6"/>
				<path id="Fill-9_1_" class="st3" d="M38.7,59.7h-6.1c-0.9,0-1.6-0.7-1.6-1.6s0.7-1.6,1.6-1.6h6.1c0.9,0,1.6,0.7,1.6,1.6
					S39.6,59.7,38.7,59.7"/>
				<path id="Fill-11" class="st2" d="M39.5,64.9H28.1c-0.9,0-1.6-0.7-1.6-1.6c0-0.9,0.7-1.6,1.6-1.6h11.4c0.9,0,1.6,0.7,1.6,1.6
					C41.2,64.1,40.4,64.9,39.5,64.9"/>
			</g>
		</g>
	</g>
</g>
<g id="Page-1_3_" class="st0">
	<g id="Home_2_" transform="translate(-929.000000, -1342.000000)" class="st1">
		<g id="HIRE" transform="translate(929.000000, 1342.000000)">
			<g id="Group-9">
				<path id="Fill-1_3_" class="st2" d="M55.1,56.8H1.8c-1.1,0-1.9-0.9-1.9-1.9V20.2c0-1.1,0.9-1.9,1.9-1.9h13.3
					c1.1,0,1.9,0.9,1.9,1.9s-0.9,1.9-1.9,1.9H3.7v30.8h49.5v-8.7c0-1.1,0.9-1.9,1.9-1.9s1.9,0.9,1.9,1.9v10.7
					C57,55.9,56.1,56.8,55.1,56.8"/>
				<path id="Fill-3_2_" class="st3" d="M41.7,19.4c-1.1,0-1.9-0.9-1.9-1.9v-6.1H22.3v3.4c0,1.1-0.9,1.9-1.9,1.9s-1.9-0.9-1.9-1.9
					V9.5c0-1.1,0.9-1.9,1.9-1.9h21.3c1.1,0,1.9,0.9,1.9,1.9v8C43.7,18.6,42.8,19.4,41.7,19.4"/>
				<path id="Fill-5_2_" class="st3" d="M55.1,38.1c-1.1,0-1.9-0.9-1.9-1.9v-16c0-1.1,0.9-1.9,1.9-1.9s1.9,0.9,1.9,1.9v16
					C57,37.2,56.1,38.1,55.1,38.1"/>
				<path id="Fill-7_2_" class="st2" d="M63.1,30.1h-16c-1.1,0-1.9-0.9-1.9-1.9s0.9-1.9,1.9-1.9h16c1.1,0,1.9,0.9,1.9,1.9
					C65,29.2,64.1,30.1,63.1,30.1"/>
			</g>
		</g>
	</g>
</g>
<g id="Page-1_4_" class="st0">
	<g id="Home_3_" transform="translate(-800.000000, -1078.000000)" class="st1">
		<g id="finish-line" transform="translate(800.000000, 1078.000000)">
			<g id="Group-8">
				<path id="Fill-1_4_" class="st2" d="M20.9,65c-0.9,0-1.6-0.7-1.6-1.6V8c0-0.9,0.7-1.6,1.6-1.6s1.6,0.7,1.6,1.6v55.5
					C22.5,64.3,21.8,65,20.9,65"/>
				<path id="Fill-3_3_" class="st2" d="M20.9,3.2c-0.9,0-1.6,0.7-1.6,1.6s0.7,1.6,1.6,1.6s1.6-0.7,1.6-1.6S21.8,3.2,20.9,3.2
					 M20.9,9.6c-2.6,0-4.8-2.1-4.8-4.8s2.1-4.8,4.8-4.8s4.8,2.1,4.8,4.8S23.6,9.6,20.9,9.6"/>
				<g id="Group-7" transform="translate(0.000000, 8.000000)">
					<g id="Clip-6">
					</g>
					<path id="Fill-5_3_" class="st3" d="M51,33.3H22.5c-0.9,0-1.6-0.7-1.6-1.6s0.7-1.6,1.6-1.6h25.8l-5-8.7
						c-0.3-0.5-0.3-1.2,0.1-1.7l7.9-11.8H16.2c-0.9,0-1.6-0.7-1.6-1.6s0.7-1.6,1.6-1.6h38c0.6,0,1.1,0.3,1.4,0.8
						c0.3,0.5,0.3,1.1-0.1,1.6l-9,13.5l5.8,10.2c0.3,0.5,0.3,1.1,0,1.6C52.1,33,51.6,33.3,51,33.3"/>
				</g>
			</g>
		</g>
	</g>
</g>
<g id="Page-1_5_" class="st0">
	<g id="Iscriviti" transform="translate(-1138.000000, -959.000000)" class="st1">
		<g id="Group-5" transform="translate(1007.000000, 959.000000)">
			<g id="check-white-copy-2" transform="translate(131.000000, 0.000000)">
				<g id="Clip-2_1_">
				</g>
				<path id="Fill-1_5_" class="st3" d="M62.3,7.5c1.2-2.4,0.4-5.4-1.8-6.8s-5-0.4-6.3,2l-6.6,13c-1.2,2.3-0.4,5.3,1.7,6.7
					c2.2,1.5,5.2,0.6,6.4-1.9L62.3,7.5z"/>
				<g id="Clip-5">
				</g>
				<path id="Fill-4_1_" class="st2" d="M30.2,50.4L16,27.3c-1.4-2.3-4.3-2.9-6.4-1.4c-2.1,1.5-2.7,4.6-1.3,6.9l18.4,29.9
					c0.9,1.4,2.3,2.2,3.8,2.2c0.1,0,0.1,0,0.2,0c1.6-0.1,3.1-1.1,3.8-2.6l12.2-24.3c1.2-2.3,0.4-5.3-1.7-6.7
					c-2.2-1.5-5.2-0.6-6.4,1.9L30.2,50.4z"/>
			</g>
		</g>
	</g>
</g>
<g id="Page-1_6_" class="st0">
	<g id="Home_4_" transform="translate(-609.000000, -1468.000000)" class="st1">
		<g id="CHAT" transform="translate(609.000000, 1468.000000)">
			<g id="Group-11_1_">
				<path id="Fill-1_6_" class="st3" d="M56.2,51.3L56,51.2h0.2V51.3z M62.8,22.6H32c-1.2,0-2.2,1-2.2,2.2c0,1.2,1,2.2,2.2,2.2h28.6
					v19.8h-22c-1.2,0-2.2,1-2.2,2.2s1,2.2,2.2,2.2h11.3c0.1,0.2,0.2,0.3,0.3,0.5l6.6,6.6c0.4,0.4,1,0.6,1.5,0.6c0.3,0,0.6,0,0.8-0.2
					c0.8-0.3,1.4-1.1,1.4-2v-5.5h2.2c1.2,0,2.2-1,2.2-2.2V24.8C65,23.6,64,22.6,62.8,22.6z"/>
				<path id="Fill-3_4_" class="st2" d="M14.4,36.9h0.2l-0.2,0.2V36.9z M35.3,6.1h-33c-1.2,0-2.2,1-2.2,2.2v26.4
					c0,1.2,1,2.2,2.2,2.2H10v5.5c0,0.9,0.5,1.7,1.4,2c0.3,0.1,0.6,0.2,0.8,0.2c0.6,0,1.1-0.2,1.6-0.6l6.6-6.6
					c0.1-0.1,0.2-0.3,0.3-0.5h12.4c1.2,0,2.2-1,2.2-2.2s-1-2.2-2.2-2.2H4.5v-22h28.6V16c0,1.2,1,2.2,2.2,2.2s2.2-1,2.2-2.2V8.3
					C37.5,7.1,36.5,6.1,35.3,6.1z"/>
				<path id="Fill-5_4_" class="st2" d="M7.8,22.6c0,1.2,1,2.2,2.2,2.2s2.2-1,2.2-2.2c0-1.2-1-2.2-2.2-2.2S7.8,21.4,7.8,22.6"/>
				<path id="Fill-7_3_" class="st2" d="M14.4,22.6c0,1.2,1,2.2,2.2,2.2s2.2-1,2.2-2.2c0-1.2-1-2.2-2.2-2.2S14.4,21.4,14.4,22.6"/>
				<path id="Fill-9_2_" class="st2" d="M21,22.6c0,1.2,1,2.2,2.2,2.2c1.2,0,2.2-1,2.2-2.2c0-1.2-1-2.2-2.2-2.2
					C22,20.4,21,21.4,21,22.6"/>
			</g>
		</g>
	</g>
</g>
<g id="Page-1_7_" class="st0">
	<g id="Corso_1_" transform="translate(-148.000000, -556.000000)" class="st1">
		<g id="book" transform="translate(148.000000, 555.000000)">
			<g id="Group-13_1_">
				<path id="Fill-1_7_" class="st2" d="M0.2,40.3V13.1c0-1.2,1-2.2,2.2-2.2h6.5c1.2,0,2.2,1,2.2,2.2s-1,2.2-2.2,2.2H4.5v25
					c0,1.2-1,2.2-2.2,2.2S0.2,41.5,0.2,40.3z"/>
				<g id="Group-5_1_" transform="translate(6.000000, 0.100100)">
					<g id="Clip-4">
					</g>
					<path id="Fill-3_5_" class="st3" d="M8.7,36.2c-0.9-0.3-1.6-1.1-1.6-2.1V12.6c0-1.2,1-2.2,2.2-2.2s2.2,1,2.2,2.2v13.8l0.5-0.9
						c0.3-0.6,0.9-1,1.6-1s1.3,0.1,1.8,0.6l0.8,0.9V13c0-1.2,1-2.2,2.2-2.2s2.2,1,2.2,2.2v18.1c0,0.9-0.5,1.7-1.3,2
						s-1.7,0.2-2.4-0.5l-2.6-2.6l-3.1,5.2c-0.4,0.7-1.1,1-1.9,1C9.1,36.3,8.9,36.3,8.7,36.2z"/>
				</g>
				<g id="Group-8_1_" transform="translate(0.000000, 1.100100)">
					<g id="Clip-7">
					</g>
					<path id="Fill-6_1_" class="st2" d="M62.8,18.7c1.2,0,2.2-1,2.2-2.2V12c0-1.2-1-2.2-2.2-2.2H32.5c-1.2,0-2.2,1-2.2,2.2v6.5
						v27.9v4.3H4.5v-2.4c0-1.2-1-2.2-2.2-2.2s-2.2,1-2.2,2.2v4.5c0,1.2,1,2.2,2.2,2.2h30.2h30.2c1.2,0,2.2-1,2.2-2.2V34.2
						c0-1.2-1-2.2-2.2-2.2s-2.2,1-2.2,2.2v16.4H34.7v-4.3V18.5v-4.3h25.9v2.4C60.6,17.7,61.6,18.7,62.8,18.7"/>
				</g>
				<path id="Fill-9_3_" class="st2" d="M54.1,28.2h-13c-1.2,0-2.2,1-2.2,2.2s1,2.2,2.2,2.2h13c1.2,0,2.2-1,2.2-2.2
					S55.3,28.2,54.1,28.2"/>
				<path id="Fill-11_1_" class="st2" d="M41.2,36.8c-1.2,0-2.2,1-2.2,2.2s1,2.2,2.2,2.2h13c1.2,0,2.2-1,2.2-2.2s-1-2.2-2.2-2.2
					H41.2z"/>
			</g>
		</g>
	</g>
</g>
<g id="Page-1_8_" class="st0">
	<g id="Home_5_" transform="translate(-616.000000, -1347.000000)" class="st1">
		<g id="PRACTICE" transform="translate(616.000000, 1346.000000)">
			<g id="Group-7_1_">
				<g id="Group-3_1_" transform="translate(0.000000, 0.200400)">
					<g id="Clip-2_2_">
					</g>
					<path id="Fill-1_8_" class="st2" d="M51.6,47.7c-0.7,0-1.4-0.3-1.9-0.9L17.1,6.6L9,13.1c-1,0.8-2.5,0.7-3.3-0.4S4.9,10.2,6,9.4
						l10-8c1-0.8,2.5-0.7,3.4,0.4l34.1,42.1c0.8,1,0.7,2.5-0.3,3.3C52.6,47.5,52.1,47.7,51.6,47.7"/>
				</g>
				<g id="Group-6" transform="translate(2.000000, 9.200400)">
					<g id="Clip-5_1_">
					</g>
					<path id="Fill-4_2_" class="st3" d="M55.6,56.8c-0.1,0-0.3,0-0.4,0l-12-2c-0.6-0.1-1.1-0.4-1.4-0.8L9.7,15.8
						c-0.9-1-0.7-2.5,0.3-3.4c1-0.9,2.5-0.7,3.4,0.3l31.5,37.4l7.9,1.3l-1.5-8.7c-0.2-1.3,0.7-2.5,2-2.8c1.3-0.2,2.5,0.7,2.7,2l2,12
						c0.1,0.8-0.1,1.5-0.7,2.1C56.8,56.5,56.2,56.8,55.6,56.8"/>
				</g>
			</g>
		</g>
	</g>
</g>
<g id="Page-1_9_">
	<g id="Home_6_" transform="translate(-292.000000, -1345.000000)">
		<g id="HOME" transform="translate(292.000000, 1344.000000)">
			<g id="Group-6_1_">
				<g id="Group-3_2_" transform="translate(0.000000, 0.638200)">
					<g id="Clip-2_3_">
					</g>
					<defs>
						<filter id="Adobe_OpacityMaskFilter" filterUnits="userSpaceOnUse" x="1.9" y="0.4" width="59.3" height="64.8">
							<feColorMatrix  type="matrix" values="1 0 0 0 0  0 1 0 0 0  0 0 1 0 0  0 0 0 1 0"/>
						</filter>
					</defs>
					<mask maskUnits="userSpaceOnUse" x="1.9" y="0.4" width="59.3" height="64.8" id="mask-2_2_">
						<g class="st4">
							<polygon id="path-1_2_" class="st5" points="1.9,0.4 61.2,0.4 61.2,65.2 1.9,65.2 							"/>
						</g>
					</mask>
					<path id="Fill-1_9_" class="st6" d="M61.1,29c0-0.2,0-0.4-0.1-0.6c-0.1-0.2-0.2-0.3-0.3-0.5c-0.1-0.1-0.1-0.2-0.2-0.3L34.1,1.2
						c-0.5-0.5-1.1-0.8-1.8-0.8c-0.7-0.1-1.4,0.3-1.9,0.7L2.6,27.7c-0.1,0.1-0.1,0.1-0.1,0.2c-0.2,0.2-0.3,0.4-0.4,0.6
						c-0.1,0.2-0.1,0.5-0.2,0.7c0,0.1,0,0.1,0,0.2v0v0v33.4c0,1.3,1.2,2.4,2.6,2.4h27.1c1.4,0,2.6-1.1,2.6-2.4s-1.2-2.4-2.6-2.4H7
						v-30l25.2-24l23.8,24v32.5c0,1.3,1.2,2.4,2.6,2.4c1.4,0,2.6-1.1,2.6-2.4V29.4C61.2,29.3,61.1,29.2,61.1,29"/>
				</g>
				<path id="Fill-4_3_" class="st7" d="M50.3,65.9c-1.4,0-2.6-1.1-2.6-2.4V48.2H36.2v5.4c0,1.3-1.2,2.4-2.6,2.4
					C32.2,56,31,55,31,53.6v-7.9c0-1.3,1.2-2.4,2.6-2.4h16.7c1.4,0,2.6,1.1,2.6,2.4v17.7C52.8,64.8,51.7,65.9,50.3,65.9"/>
			</g>
		</g>
	</g>
</g>
</svg>
