<?xml version="1.0" encoding="utf-8"?>
<!-- Generator: Adobe Illustrator 23.0.0, SVG Export Plug-In . SVG Version: 6.00 Build 0)  -->
<svg version="1.1" id="Livello_1" xmlns="http://www.w3.org/2000/svg" xmlns:xlink="http://www.w3.org/1999/xlink" x="0px" y="0px"
	 viewBox="0 0 65 65" style="enable-background:new 0 0 65 65;" xml:space="preserve">
<style type="text/css">
	.st0{display:none;}
	.st1{display:inline;}
	.st2{fill-rule:evenodd;clip-rule:evenodd;fill:#1C3C59;}
	.st3{fill-rule:evenodd;clip-rule:evenodd;fill:#7BBD66;}
	.st4{filter:url(#Adobe_OpacityMaskFilter);}
	.st5{fill-rule:evenodd;clip-rule:evenodd;fill:#FFFFFF;}
	.st6{mask:url(#mask-2_2_);fill-rule:evenodd;clip-rule:evenodd;fill:#7BBD66;}
	.st7{filter:url(#Adobe_OpacityMaskFilter_1_);}
	.st8{mask:url(#mask-2_1_);fill-rule:evenodd;clip-rule:evenodd;fill:#7BBD66;}
	.st9{filter:url(#Adobe_OpacityMaskFilter_2_);}
	.st10{mask:url(#mask-2_3_);fill-rule:evenodd;clip-rule:evenodd;fill:#7BBD66;}
	.st11{filter:url(#Adobe_OpacityMaskFilter_3_);}
	.st12{mask:url(#mask-4_2_);fill-rule:evenodd;clip-rule:evenodd;fill:#1C3C59;}
	.st13{filter:url(#Adobe_OpacityMaskFilter_4_);}
	.st14{mask:url(#mask-2_4_);fill-rule:evenodd;clip-rule:evenodd;fill:#7BBD66;}
	.st15{filter:url(#Adobe_OpacityMaskFilter_5_);}
	.st16{mask:url(#mask-4_1_);fill-rule:evenodd;clip-rule:evenodd;fill:#1C3C59;}
	.st17{filter:url(#Adobe_OpacityMaskFilter_6_);}
	.st18{mask:url(#mask-2_5_);fill-rule:evenodd;clip-rule:evenodd;fill:#1C3C59;}
	.st19{filter:url(#Adobe_OpacityMaskFilter_7_);}
	.st20{mask:url(#mask-4_3_);fill-rule:evenodd;clip-rule:evenodd;fill:#7BBD66;}
</style>
<g id="Page-1" class="st0">
	<g id="Corso" transform="translate(-151.000000, -617.000000)" class="st1">
		<g id="lunch" transform="translate(151.000000, 617.000000)">
			<g id="Group-11">
				<path id="Fill-1" class="st2" d="M20.55,56.71H8.73c-1.46,0-2.7-1-2.92-2.36L-0.1,18.21c-0.13-0.8,0.12-1.62,0.68-2.23
					c0.56-0.62,1.38-0.97,2.24-0.97h8.86c1.63,0,2.95,1.25,2.95,2.78c0,1.53-1.32,2.78-2.95,2.78H6.27l5,30.58h6.82l5.47-28.3
					c0.29-1.51,1.83-2.5,3.44-2.24c1.6,0.28,2.67,1.72,2.38,3.23l-5.91,30.58C23.2,55.75,21.98,56.71,20.55,56.71"/>
				<path id="Fill-3" class="st3" d="M14.64,37.25c-0.31,0-0.62-0.05-0.93-0.14c-1.55-0.49-2.39-2.06-1.87-3.52L20.7,8.57
					c0.52-1.45,2.19-2.25,3.74-1.76c1.55,0.49,2.39,2.06,1.87,3.52l-8.86,25.02C17.03,36.51,15.88,37.25,14.64,37.25"/>
				<path id="Fill-5" class="st2" d="M61.92,42.81H44.19c-1.63,0-2.95-1.25-2.95-2.78s1.32-2.78,2.95-2.78h14.77v-1.4
					c-12.02-8.15-21.15,0.22-21.55,0.59c-1.16,1.09-3.02,1.09-4.18,0c-1.16-1.09-1.16-2.84,0-3.93c4.74-4.46,17.21-10.23,30.53-0.21
					c0.7,0.53,1.11,1.33,1.11,2.17v5.56C64.87,41.56,63.55,42.81,61.92,42.81"/>
				<path id="Fill-7" class="st3" d="M53.05,51.15H32.37c-1.63,0-2.95-1.25-2.95-2.78s1.32-2.78,2.95-2.78h20.68
					c1.63,0,2.95,1.25,2.95,2.78S54.69,51.15,53.05,51.15"/>
				<path id="Fill-9" class="st2" d="M61.92,59.49H35.32c-1.63,0-2.95-1.25-2.95-2.78c0-1.53,1.32-2.78,2.95-2.78h26.59
					c1.63,0,2.95,1.25,2.95,2.78C64.87,58.24,63.55,59.49,61.92,59.49"/>
			</g>
		</g>
	</g>
</g>
<g id="Page-1_1_" class="st0">
	<g id="Home" transform="translate(-294.000000, -1466.000000)" class="st1">
		<g id="LESSON" transform="translate(294.000000, 1466.000000)">
			<g id="Group-12">
				<g id="Group-3" transform="translate(0.000000, 0.000500)">
					<g id="Clip-2">
					</g>
					<defs>
						<filter id="Adobe_OpacityMaskFilter" filterUnits="userSpaceOnUse" x="0.06" y="0.06" width="64.82" height="35.36">
							<feColorMatrix  type="matrix" values="1 0 0 0 0  0 1 0 0 0  0 0 1 0 0  0 0 0 1 0"/>
						</filter>
					</defs>
					<mask maskUnits="userSpaceOnUse" x="0.06" y="0.06" width="64.82" height="35.36" id="mask-2_2_">
						<g class="st4">
							<polygon id="path-1_2_" class="st5" points="0.06,0.06 64.87,0.06 64.87,35.42 0.06,35.42 							"/>
						</g>
					</mask>
					<path id="Fill-1_1_" class="st6" d="M61.93,35.42c-1.63,0-2.95-1.32-2.95-2.95V5.95H3c-1.63,0-2.95-1.32-2.95-2.95
						S1.38,0.06,3,0.06h58.93c1.63,0,2.95,1.32,2.95,2.95v29.46C64.87,34.1,63.55,35.42,61.93,35.42"/>
				</g>
				<path id="Fill-4" class="st2" d="M35.41,50.15H3c-1.63,0-2.95-1.32-2.95-2.95V17.74c0-1.63,1.32-2.95,2.95-2.95
					s2.95,1.32,2.95,2.95v26.52h29.46c1.63,0,2.95,1.32,2.95,2.95C38.36,48.83,37.04,50.15,35.41,50.15"/>
				<path id="Fill-6" class="st2" d="M56.04,64.88c-1.14,0-2.23-0.67-2.71-1.79l-8.84-20.62c-0.64-1.5,0.05-3.23,1.54-3.87
					c1.5-0.64,3.23,0.05,3.87,1.54l8.84,20.62c0.64,1.5-0.05,3.23-1.54,3.87C56.82,64.81,56.42,64.88,56.04,64.88"/>
				<path id="Fill-8" class="st3" d="M26.57,32.47c-0.75,0-1.51-0.29-2.08-0.86l-5.89-5.89c-1.15-1.15-1.15-3.01,0-4.17l5.89-5.89
					c1.15-1.15,3.01-1.15,4.17,0c1.15,1.15,1.15,3.01,0,4.17l-3.81,3.81l3.81,3.81c1.15,1.15,1.15,3.01,0,4.17
					C28.08,32.18,27.33,32.47,26.57,32.47"/>
				<path id="Fill-10" class="st2" d="M35.41,38.36c-0.75,0-1.51-0.29-2.08-0.86c-1.15-1.15-1.15-3.01,0-4.17l3.81-3.81l-3.81-3.81
					c-1.15-1.15-1.15-3.01,0-4.17s3.01-1.15,4.17,0l5.89,5.89c1.15,1.15,1.15,3.01,0,4.17l-5.89,5.89
					C36.92,38.08,36.17,38.36,35.41,38.36"/>
			</g>
		</g>
	</g>
</g>
<g id="Page-1_2_">
	<g id="Home_1_" transform="translate(-934.000000, -1452.000000)">
		<g id="lamp" transform="translate(934.000000, 1452.000000)">
			<g id="Group-13">
				<path id="Fill-1_2_" class="st2" d="M45.81,22.16c-3.61-3.44-8.34-5.21-13.34-4.96c-9.28,0.45-16.8,8.08-17.13,17.37
					c-0.25,7.16,3.76,13.8,10.22,16.91c0.27,0.13,0.44,0.39,0.44,0.67v3.13c0,0.21,0.02,0.41,0.04,0.61l0.02,0.18
					c0.02,0.22,0.21,0.4,0.44,0.4h2.1c0.13,0,0.25-0.05,0.33-0.15s0.12-0.22,0.11-0.34c-0.02-0.16-0.03-0.32-0.03-0.48v-4.7
					c0-0.69-0.42-1.32-1.05-1.56c-0.45-0.18-0.9-0.38-1.33-0.6c-5.23-2.64-8.48-8.1-8.29-13.92c0.26-7.77,6.54-14.14,14.3-14.51
					c4.16-0.19,8.09,1.28,11.09,4.14c3.01,2.87,4.66,6.73,4.66,10.88c0,5.7-3.18,10.84-8.29,13.42c-0.43,0.22-0.88,0.42-1.33,0.6
					c-0.63,0.24-1.05,0.87-1.05,1.56v2.67c0,0.48,0.39,0.87,0.87,0.87h1.28c0.48,0,0.87-0.39,0.87-0.87v-1.41
					c0-0.23,0.13-0.43,0.35-0.53c6.27-2.98,10.32-9.38,10.32-16.3C51.42,30.25,49.42,25.6,45.81,22.16"/>
				<path id="Fill-3_1_" class="st3" d="M19.39,19.38c-0.39,0-0.78-0.13-1.1-0.39l-6.04-4.83c-0.76-0.61-0.88-1.72-0.27-2.48
					c0.61-0.76,1.72-0.88,2.48-0.27l6.04,4.83c0.76,0.61,0.88,1.72,0.27,2.48C20.42,19.16,19.9,19.38,19.39,19.38"/>
				<path id="Fill-5_1_" class="st2" d="M24.9,15.52c-0.66,0-1.29-0.37-1.59-1L18.33,4.12c-0.42-0.88-0.05-1.93,0.83-2.35
					c0.88-0.42,1.93-0.05,2.35,0.83l4.97,10.39c0.42,0.88,0.05,1.93-0.83,2.35C25.41,15.46,25.15,15.52,24.9,15.52"/>
				<path id="Fill-7_1_" class="st3" d="M31.47,14.55c-0.97,0-1.76-0.79-1.76-1.76V1.91c0-0.97,0.79-1.76,1.76-1.76
					c0.97,0,1.76,0.79,1.76,1.76v10.87C33.23,13.76,32.44,14.55,31.47,14.55"/>
				<path id="Fill-9_1_" class="st3" d="M38.74,59.74h-6.11c-0.91,0-1.64-0.73-1.64-1.64s0.73-1.64,1.64-1.64h6.11
					c0.91,0,1.64,0.73,1.64,1.64S39.64,59.74,38.74,59.74"/>
				<path id="Fill-11" class="st2" d="M39.53,64.87H28.13c-0.91,0-1.64-0.73-1.64-1.64c0-0.91,0.73-1.64,1.64-1.64h11.39
					c0.91,0,1.64,0.73,1.64,1.64C41.17,64.14,40.43,64.87,39.53,64.87"/>
			</g>
		</g>
	</g>
</g>
<g id="Page-1_3_" class="st0">
	<g id="Home_2_" transform="translate(-929.000000, -1342.000000)" class="st1">
		<g id="HIRE" transform="translate(929.000000, 1342.000000)">
			<g id="Group-9">
				<path id="Fill-1_3_" class="st2" d="M55.07,56.75H1.77c-1.06,0-1.92-0.86-1.92-1.92V20.19c0-1.06,0.86-1.92,1.92-1.92h13.32
					c1.06,0,1.92,0.86,1.92,1.92c0,1.06-0.86,1.92-1.92,1.92H3.69v30.81h49.47v-8.74c0-1.06,0.86-1.92,1.92-1.92
					s1.92,0.86,1.92,1.92v10.66C56.98,55.89,56.13,56.75,55.07,56.75"/>
				<path id="Fill-3_2_" class="st3" d="M41.74,19.44c-1.06,0-1.92-0.86-1.92-1.92v-6.08H22.34v3.41c0,1.06-0.86,1.92-1.92,1.92
					c-1.06,0-1.92-0.86-1.92-1.92V9.53c0-1.06,0.86-1.92,1.92-1.92h21.32c1.06,0,1.92,0.86,1.92,1.92v7.99
					C43.66,18.58,42.8,19.44,41.74,19.44"/>
				<path id="Fill-5_2_" class="st3" d="M55.07,38.09c-1.06,0-1.92-0.86-1.92-1.92V20.19c0-1.06,0.86-1.92,1.92-1.92
					s1.92,0.86,1.92,1.92v15.99C56.98,37.24,56.13,38.09,55.07,38.09"/>
				<path id="Fill-7_2_" class="st2" d="M63.06,30.1H47.07c-1.06,0-1.92-0.86-1.92-1.92c0-1.06,0.86-1.92,1.92-1.92h15.99
					c1.06,0,1.92,0.86,1.92,1.92C64.98,29.24,64.12,30.1,63.06,30.1"/>
			</g>
		</g>
	</g>
</g>
<g id="Page-1_4_" class="st0">
	<g id="Home_3_" transform="translate(-800.000000, -1078.000000)" class="st1">
		<g id="finish-line" transform="translate(800.000000, 1078.000000)">
			<g id="Group-8">
				<path id="Fill-1_4_" class="st2" d="M20.94,65.04c-0.87,0-1.58-0.71-1.58-1.58V7.98c0-0.87,0.71-1.58,1.58-1.58
					s1.58,0.71,1.58,1.58v55.47C22.52,64.33,21.81,65.04,20.94,65.04"/>
				<path id="Fill-3_3_" class="st2" d="M20.94,3.22c-0.87,0-1.58,0.71-1.58,1.58s0.71,1.58,1.58,1.58s1.58-0.71,1.58-1.58
					S21.81,3.22,20.94,3.22 M20.94,9.56c-2.62,0-4.75-2.13-4.75-4.75s2.13-4.75,4.75-4.75s4.75,2.13,4.75,4.75
					S23.56,9.56,20.94,9.56"/>
				<g id="Group-7" transform="translate(0.000000, 8.000000)">
					<g id="Clip-6">
					</g>
					<defs>
						<filter id="Adobe_OpacityMaskFilter_1_" filterUnits="userSpaceOnUse" x="14.6" y="4.73" width="41.21" height="28.53">
							<feColorMatrix  type="matrix" values="1 0 0 0 0  0 1 0 0 0  0 0 1 0 0  0 0 0 1 0"/>
						</filter>
					</defs>
					<mask maskUnits="userSpaceOnUse" x="14.6" y="4.73" width="41.21" height="28.53" id="mask-2_1_">
						<g class="st7">
							<polygon id="path-1_1_" class="st5" points="14.6,4.73 55.8,4.73 55.8,33.26 14.6,33.26 							"/>
						</g>
					</mask>
					<path id="Fill-5_3_" class="st8" d="M51.05,33.26H22.52c-0.87,0-1.58-0.71-1.58-1.58s0.71-1.58,1.58-1.58h25.8l-4.98-8.72
						c-0.3-0.52-0.28-1.17,0.06-1.67l7.87-11.8H16.18c-0.87,0-1.58-0.71-1.58-1.58s0.71-1.58,1.58-1.58h38.04
						c0.58,0,1.12,0.32,1.4,0.84c0.28,0.52,0.25,1.14-0.08,1.63l-8.97,13.45l5.85,10.24c0.28,0.49,0.28,1.09,0,1.58
						C52.14,32.96,51.61,33.26,51.05,33.26"/>
				</g>
			</g>
		</g>
	</g>
</g>
<g id="Page-1_5_" class="st0">
	<g id="Iscriviti" transform="translate(-1138.000000, -959.000000)" class="st1">
		<g id="Group-5" transform="translate(1007.000000, 959.000000)">
			<g id="check-white-copy-2" transform="translate(131.000000, 0.000000)">
				<g id="Clip-2_1_">
				</g>
				<defs>
					<filter id="Adobe_OpacityMaskFilter_2_" filterUnits="userSpaceOnUse" x="47.09" y="0.15" width="15.77" height="23.01">
						<feColorMatrix  type="matrix" values="1 0 0 0 0  0 1 0 0 0  0 0 1 0 0  0 0 0 1 0"/>
					</filter>
				</defs>
				<mask maskUnits="userSpaceOnUse" x="47.09" y="0.15" width="15.77" height="23.01" id="mask-2_3_">
					<g class="st9">
						<polygon id="path-1_3_" class="st5" points="47.09,0.15 62.86,0.15 62.86,23.16 47.09,23.16 						"/>
					</g>
				</mask>
				<path id="Fill-1_5_" class="st10" d="M62.3,7.53c1.22-2.42,0.4-5.45-1.84-6.77c-2.24-1.32-5.03-0.42-6.25,1.99l-6.56,13.03
					c-1.18,2.34-0.44,5.29,1.68,6.66c2.24,1.46,5.16,0.6,6.41-1.89L62.3,7.53z"/>
				<g id="Clip-5">
				</g>
				<defs>
					<filter id="Adobe_OpacityMaskFilter_3_" filterUnits="userSpaceOnUse" x="7.61" y="25.08" width="39.86" height="39.9">
						<feColorMatrix  type="matrix" values="1 0 0 0 0  0 1 0 0 0  0 0 1 0 0  0 0 0 1 0"/>
					</filter>
				</defs>
				<mask maskUnits="userSpaceOnUse" x="7.61" y="25.08" width="39.86" height="39.9" id="mask-4_2_">
					<g class="st11">
						<polygon id="path-3_2_" class="st5" points="7.62,25.08 47.48,25.08 47.48,64.99 7.62,64.99 						"/>
					</g>
				</mask>
				<path id="Fill-4_1_" class="st12" d="M30.24,50.37L16.05,27.31c-1.41-2.29-4.27-2.92-6.38-1.38c-2.12,1.53-2.69,4.62-1.28,6.92
					L26.8,62.77c0.86,1.39,2.3,2.22,3.83,2.22c0.07,0,0.14,0,0.21,0c1.61-0.07,3.07-1.06,3.83-2.59l12.24-24.3
					c1.18-2.35,0.44-5.29-1.68-6.66c-2.24-1.46-5.16-0.6-6.41,1.89L30.24,50.37z"/>
			</g>
		</g>
	</g>
</g>
<g id="Page-1_6_" class="st0">
	<g id="Home_4_" transform="translate(-609.000000, -1468.000000)" class="st1">
		<g id="CHAT" transform="translate(609.000000, 1468.000000)">
			<g id="Group-11_1_">
				<path id="Fill-1_6_" class="st3" d="M56.18,51.34l-0.19-0.19h0.19V51.34z M62.77,22.58H32c-1.21,0-2.2,0.98-2.2,2.2
					c0,1.21,0.98,2.2,2.2,2.2h28.57v19.78H38.6c-1.21,0-2.2,0.98-2.2,2.2s0.98,2.2,2.2,2.2h11.33c0.09,0.16,0.17,0.32,0.3,0.45
					l6.59,6.59c0.42,0.42,0.98,0.64,1.55,0.64c0.28,0,0.57-0.05,0.84-0.17c0.82-0.34,1.36-1.14,1.36-2.03v-5.49h2.2
					c1.21,0,2.2-0.98,2.2-2.2V24.78C64.97,23.57,63.98,22.58,62.77,22.58z"/>
				<path id="Fill-3_4_" class="st2" d="M14.42,36.87h0.19l-0.19,0.19V36.87z M35.3,6.1H2.34c-1.21,0-2.2,0.98-2.2,2.2v26.37
					c0,1.21,0.98,2.2,2.2,2.2h7.69v5.49c0,0.89,0.54,1.69,1.36,2.03c0.27,0.11,0.56,0.17,0.84,0.17c0.57,0,1.13-0.22,1.55-0.64
					l6.59-6.59c0.13-0.13,0.21-0.3,0.3-0.45H33.1c1.21,0,2.2-0.98,2.2-2.2s-0.98-2.2-2.2-2.2H4.54V10.5H33.1v5.49
					c0,1.21,0.98,2.2,2.2,2.2s2.2-0.98,2.2-2.2V8.3C37.5,7.09,36.51,6.1,35.3,6.1z"/>
				<path id="Fill-5_4_" class="st2" d="M7.83,22.58c0,1.21,0.98,2.2,2.2,2.2s2.2-0.98,2.2-2.2c0-1.21-0.98-2.2-2.2-2.2
					S7.83,21.37,7.83,22.58"/>
				<path id="Fill-7_3_" class="st2" d="M14.42,22.58c0,1.21,0.98,2.2,2.2,2.2s2.2-0.98,2.2-2.2c0-1.21-0.98-2.2-2.2-2.2
					S14.42,21.37,14.42,22.58"/>
				<path id="Fill-9_2_" class="st2" d="M21.02,22.58c0,1.21,0.98,2.2,2.2,2.2c1.21,0,2.2-0.98,2.2-2.2c0-1.21-0.98-2.2-2.2-2.2
					C22,20.39,21.02,21.37,21.02,22.58"/>
			</g>
		</g>
	</g>
</g>
<g id="Page-1_7_" class="st0">
	<g id="Corso_1_" transform="translate(-148.000000, -556.000000)" class="st1">
		<g id="book" transform="translate(148.000000, 555.000000)">
			<g id="Group-13_1_">
				<path id="Fill-1_7_" class="st2" d="M0.15,40.3V13.1c0-1.19,0.97-2.16,2.16-2.16h6.48c1.19,0,2.16,0.97,2.16,2.16
					s-0.97,2.16-2.16,2.16H4.47V40.3c0,1.19-0.97,2.16-2.16,2.16S0.15,41.49,0.15,40.3z"/>
				<g id="Group-5_1_" transform="translate(6.000000, 0.100100)">
					<g id="Clip-4">
					</g>
					<defs>
						<filter id="Adobe_OpacityMaskFilter_4_" filterUnits="userSpaceOnUse" x="7.1" y="10.4" width="13.38" height="25.91">
							<feColorMatrix  type="matrix" values="1 0 0 0 0  0 1 0 0 0  0 0 1 0 0  0 0 0 1 0"/>
						</filter>
					</defs>
					<mask maskUnits="userSpaceOnUse" x="7.1" y="10.4" width="13.38" height="25.91" id="mask-2_4_">
						<g class="st13">
							<polygon id="path-1_4_" class="st5" points="7.1,10.4 20.49,10.4 20.49,36.31 7.1,36.31 							"/>
						</g>
					</mask>
					<path id="Fill-3_5_" class="st14" d="M8.68,36.23c-0.93-0.26-1.58-1.11-1.58-2.08V12.56c0-1.19,0.97-2.16,2.16-2.16
						s2.16,0.97,2.16,2.16v13.79l0.52-0.87c0.34-0.57,0.93-0.95,1.59-1.03c0.66-0.08,1.32,0.15,1.79,0.62l0.85,0.85V12.99
						c0-1.19,0.97-2.16,2.16-2.16s2.16,0.97,2.16,2.16v18.13c0,0.87-0.52,1.66-1.33,1.99c-0.81,0.33-1.74,0.15-2.35-0.47l-2.58-2.58
						l-3.11,5.19c-0.4,0.66-1.11,1.05-1.85,1.05C9.07,36.31,8.88,36.28,8.68,36.23z"/>
				</g>
				<g id="Group-8_1_" transform="translate(0.000000, 1.100100)">
					<g id="Clip-7">
					</g>
					<defs>
						<filter id="Adobe_OpacityMaskFilter_5_" filterUnits="userSpaceOnUse" x="0.15" y="9.84" width="64.76" height="45.12">
							<feColorMatrix  type="matrix" values="1 0 0 0 0  0 1 0 0 0  0 0 1 0 0  0 0 0 1 0"/>
						</filter>
					</defs>
					<mask maskUnits="userSpaceOnUse" x="0.15" y="9.84" width="64.76" height="45.12" id="mask-4_1_">
						<g class="st15">
							<polygon id="path-3_1_" class="st5" points="0.15,9.84 64.91,9.84 64.91,54.95 0.15,54.95 							"/>
						</g>
					</mask>
					<path id="Fill-6_1_" class="st16" d="M62.75,18.69c1.19,0,2.16-0.97,2.16-2.16v-4.53c0-1.19-0.97-2.16-2.16-2.16H32.53
						c-1.19,0-2.16,0.97-2.16,2.16v6.48v27.85v4.32H4.47v-2.37c0-1.19-0.97-2.16-2.16-2.16s-2.16,0.96-2.16,2.16v4.53
						c0,1.19,0.97,2.16,2.16,2.16h30.22h30.22c1.19,0,2.16-0.97,2.16-2.16V34.23c0-1.19-0.97-2.16-2.16-2.16s-2.16,0.96-2.16,2.16
						v16.41H34.69v-4.32V18.47v-4.32h25.91v2.37C60.59,17.72,61.56,18.69,62.75,18.69"/>
				</g>
				<path id="Fill-9_3_" class="st2" d="M54.12,28.21H41.17c-1.19,0-2.16,0.97-2.16,2.16s0.97,2.16,2.16,2.16h12.95
					c1.19,0,2.16-0.97,2.16-2.16S55.31,28.21,54.12,28.21"/>
				<path id="Fill-11_1_" class="st2" d="M41.17,36.84c-1.19,0-2.16,0.97-2.16,2.16s0.97,2.16,2.16,2.16h12.95
					c1.19,0,2.16-0.97,2.16-2.16s-0.97-2.16-2.16-2.16H41.17z"/>
			</g>
		</g>
	</g>
</g>
<g id="Page-1_8_" class="st0">
	<g id="Home_5_" transform="translate(-616.000000, -1347.000000)" class="st1">
		<g id="PRACTICE" transform="translate(616.000000, 1346.000000)">
			<g id="Group-7_1_">
				<g id="Group-3_1_" transform="translate(0.000000, 0.200400)">
					<g id="Clip-2_2_">
					</g>
					<defs>
						<filter id="Adobe_OpacityMaskFilter_6_" filterUnits="userSpaceOnUse" x="5.08" y="0.85" width="48.86" height="46.86">
							<feColorMatrix  type="matrix" values="1 0 0 0 0  0 1 0 0 0  0 0 1 0 0  0 0 0 1 0"/>
						</filter>
					</defs>
					<mask maskUnits="userSpaceOnUse" x="5.08" y="0.85" width="48.86" height="46.86" id="mask-2_5_">
						<g class="st17">
							<polygon id="path-1_5_" class="st5" points="5.08,0.86 53.95,0.86 53.95,47.72 5.08,47.72 							"/>
						</g>
					</mask>
					<path id="Fill-1_8_" class="st18" d="M51.56,47.72c-0.7,0-1.38-0.3-1.86-0.89L17.13,6.59l-8.17,6.53
						c-1.03,0.83-2.53,0.66-3.35-0.37c-0.82-1.03-0.66-2.53,0.37-3.35L16,1.38c1.02-0.82,2.52-0.66,3.35,0.36l34.07,42.09
						c0.83,1.02,0.67,2.53-0.35,3.35C52.62,47.54,52.09,47.72,51.56,47.72"/>
				</g>
				<g id="Group-6" transform="translate(2.000000, 9.200400)">
					<g id="Clip-5_1_">
					</g>
					<defs>
						<filter id="Adobe_OpacityMaskFilter_7_" filterUnits="userSpaceOnUse" x="9.1" y="11.9" width="48.86" height="44.86">
							<feColorMatrix  type="matrix" values="1 0 0 0 0  0 1 0 0 0  0 0 1 0 0  0 0 0 1 0"/>
						</filter>
					</defs>
					<mask maskUnits="userSpaceOnUse" x="9.1" y="11.9" width="48.86" height="44.86" id="mask-4_3_">
						<g class="st19">
							<polygon id="path-3_3_" class="st5" points="9.1,11.9 57.96,11.9 57.96,56.75 9.1,56.75 							"/>
						</g>
					</mask>
					<path id="Fill-4_2_" class="st20" d="M55.57,56.75c-0.13,0-0.26-0.01-0.39-0.03l-12.03-2c-0.56-0.09-1.07-0.38-1.43-0.82
						L9.66,15.82c-0.85-1.01-0.72-2.51,0.29-3.36c1-0.85,2.51-0.72,3.36,0.29l31.5,37.41l7.86,1.31l-1.46-8.73
						c-0.22-1.3,0.66-2.53,1.96-2.75c1.31-0.22,2.53,0.66,2.74,1.96l2,12.03c0.13,0.76-0.12,1.54-0.67,2.08
						C56.81,56.51,56.2,56.75,55.57,56.75"/>
				</g>
			</g>
		</g>
	</g>
</g>
</svg>
